<?xml version="1.0" encoding="utf-8"?>
<!-- Generator: Adobe Illustrator 16.0.0, SVG Export Plug-In . SVG Version: 6.00 Build 0)  -->
<!DOCTYPE svg PUBLIC "-//W3C//DTD SVG 1.1//EN" "http://www.w3.org/Graphics/SVG/1.1/DTD/svg11.dtd">
<svg version="1.1" id="Layer_1" xmlns="http://www.w3.org/2000/svg" xmlns:xlink="http://www.w3.org/1999/xlink" x="0px" y="0px"
	 width="1280px" height="425px" viewBox="0 0 1280 425" enable-background="new 0 0 1280 425" xml:space="preserve">
<path fill-rule="evenodd" clip-rule="evenodd" fill="#E20010" d="M308,0c8.459,1.467,16.986,2.625,25.363,4.462
	c20.025,4.392,38.651,12.085,55.269,24.322c21.28,15.673,35.272,36.334,42.113,61.777c7.873,29.282,6.941,58.572-1.082,87.641
	c-11.869,43.001-34.667,79.966-63.517,113.501c-20.497,23.824-44.515,43.804-69.218,62.994c-23.276,18.082-47.425,34.9-73.77,48.297
	c-20.814,10.584-42.127,19.769-65.887,21.336c-0.437,0.029-0.848,0.438-1.271,0.67c-3,0-6,0-9,0c-0.754-0.259-1.5-0.715-2.264-0.748
	c-14.647-0.621-25.469-8.13-33.801-19.446c-10.617-14.421-11.664-30.955-6.519-47.156c4.596-14.474,10.841-28.657,18.17-41.972
	c9.827-17.851,22.968-33.221,42.585-41.229c16.645-6.794,33.189-6.363,48.851,2.996c8.843,5.285,12.154,14.044,7.562,23.154
	c-4.046,8.028-9.531,15.614-15.606,22.278c-14.004,15.363-29.009,29.812-43.092,45.106c-7.075,7.685-13.03,16.449-15.461,26.935
	c-1.812,7.813,1.628,13.749,9.352,14.597c5.111,0.562,10.676-0.262,15.657-1.745c20.29-6.046,38.332-16.776,55.859-28.312
	c35.891-23.621,68.442-51.209,96.829-83.514c20.14-22.92,37.019-47.844,45.384-77.724c5.194-18.55,7.474-37.154,1.605-55.952
	c-4.923-15.766-13.16-28.923-30.095-33.903c-11.869-3.49-23.762-1.634-35.405,1.667c-22.116,6.27-42.219,17-61.727,28.808
	c-40.582,24.563-79.925,50.96-117.53,79.936c-15.447,11.903-31.792,22.402-50.692,28.335c-25.531,8.015-53.942-1.508-67.632-24.163
	C4.543,235.524,2.928,226.365,0,218c0-2.333,0-4.667,0-7c2.579-9.88,4.032-20.231,7.941-29.554
	c13.215-31.519,35.51-56.465,60.534-78.977c33.129-29.802,70.407-53.44,110.831-72.13c24.521-11.337,49.799-20.503,76.317-25.94
	C264.029,2.676,272.538,1.452,281,0C290,0,299,0,308,0z"/>
<path fill-rule="evenodd" clip-rule="evenodd" fill="#E20010" d="M1280,346c-12.258,1.676-24.491,2.161-36.749-0.17
	c-24.359-4.633-39.817-21.852-42.059-47.229c-0.497-5.633-0.754-11.306-0.759-16.96c-0.055-56.125,0.023-112.251-0.134-168.376
	c-0.014-4.83,0.984-6.88,6.252-7.574c12.685-1.672,25.252-4.226,37.874-6.386c1.283-0.219,2.612-0.174,4.493-0.285
	c0,2.202,0,4.161,0,6.12c0,60.122,0,120.244,0,180.366c0,0.5,0,1,0.001,1.499c0.021,21.802,9.115,29.993,31.08,27.994
	C1280,325.333,1280,335.667,1280,346z"/>
<path fill-rule="evenodd" clip-rule="evenodd" fill="#E20010" d="M534.31,196.931c-4.199-9.374-8.328-18.593-12.616-28.167
	c14.419-7.781,29.072-13.942,44.788-17.164c20.055-4.111,40.026-4.613,59.363,3.55c20.547,8.675,31.624,24.683,34.972,46.325
	c0.811,5.238,1.036,10.609,1.051,15.92c0.093,32.147-0.027,64.296,0.146,96.442c0.021,3.755-1.238,6.163-3.928,8.496
	c-17.459,15.146-38.034,22.817-60.688,25.58c-15.372,1.874-30.538,1.589-45.282-4.006c-35.704-13.547-53.561-52.638-39.098-86.248
	c9.382-21.803,27.516-32.211,49.751-36.397c7.96-1.499,16.202-1.702,24.334-2.022c8.306-0.327,16.635-0.072,25.705-0.072
	c0.145-9.018,1.124-17.781-3.558-25.845c-3.577-6.16-9.524-8.604-16.216-9.419c-18.366-2.238-35.204,3.27-51.686,10.446
	c-1.829,0.796-3.626,1.663-5.453,2.462C535.612,196.936,535.245,196.869,534.31,196.931z M612.897,251.923
	c-7.951,0-15.106-0.153-22.253,0.03c-17.669,0.454-29.374,11.238-31.386,28.714c-1.86,16.166,6.422,30.467,20.157,33.719
	c10.53,2.492,20.902,0.878,30.617-3.814c1.436-0.693,2.651-3.3,2.734-5.078c0.316-6.818,0.13-13.66,0.13-20.493
	C612.898,274.201,612.897,263.401,612.897,251.923z"/>
<path fill-rule="evenodd" clip-rule="evenodd" fill="#E20010" d="M1170.127,254.651c-2.644,0-4.604,0-6.566,0
	c-30.997,0.001-61.995,0.067-92.991-0.081c-4.001-0.02-6.016,0.932-5.447,5.198c1.335,10.029,1.61,20.341,4.208,30.031
	c4.401,16.417,16.521,24.826,33.615,25.27c19.776,0.513,37.713-5.341,54.789-16.145c4.489,9.206,8.902,18.254,13.854,28.404
	c-8.915,4.487-17.418,9.339-26.363,13.153c-20.421,8.707-41.785,11.151-63.621,7.165c-31.737-5.795-50.431-26.493-60.116-55.76
	c-11.161-33.727-8.552-67.247,6.635-99.175c18.505-38.907,63.195-53.978,102.242-35.497c12.223,5.784,21.129,15.013,27.102,26.996
	C1168.403,206.156,1170.086,229.8,1170.127,254.651z M1066.851,223.849c18.092,0,35.411,0,54.128,0
	c-1.92-8.456-2.686-16.544-5.609-23.757c-6.593-16.268-27.34-19.034-38.74-5.589
	C1069.539,202.864,1067.521,213.007,1066.851,223.849z"/>
<path fill-rule="evenodd" clip-rule="evenodd" fill="#E20010" d="M997.693,315.645c0,9.446,0.102,18.253-0.13,27.052
	c-0.028,1.073-1.729,2.866-2.846,3.031c-16.378,2.415-32.589,2.003-48.096-4.508c-17.374-7.294-26.532-21.051-29.443-39.216
	c-0.865-5.394-1.105-10.937-1.113-16.411c-0.076-57.797-0.048-115.594-0.048-173.391c0-1.647,0-3.296,0-5.375
	c16.496-2.649,32.681-5.249,49.536-7.956c0,17.982,0,35.375,0,53.227c10.838,0,21.101,0,31.746,0c0,12.004,0,23.545,0,35.573
	c-10.41,0-20.66,0-31.438,0c-0.113,2.202-0.281,3.956-0.282,5.709c-0.016,31.313-0.011,62.628-0.01,93.941
	c0,0.666-0.003,1.332,0.012,1.998c0.403,18.2,7.314,25.26,25.443,26.001C992.994,315.4,994.963,315.511,997.693,315.645z"/>
<path fill-rule="evenodd" clip-rule="evenodd" fill="#E20010" d="M786.181,345.383c0-2.132,0-3.919,0-5.705
	c0.008-49.326,0.048-98.651-0.044-147.977c-0.007-3.427,0.886-5.908,3.393-8.306c29.338-28.055,63.552-39.812,103.869-31.322
	c2.869,0.604,5.631,1.715,9.071,2.787c-4.403,9.912-8.429,19.345-12.92,28.551c-0.495,1.015-3.731,1.225-5.577,0.963
	c-14.957-2.125-29.169-0.373-42.516,7.155c-4.183,2.359-5.947,5.217-5.922,10.306c0.224,45.992,0.076,91.985,0.218,137.978
	c0.014,4.396-0.884,6.094-5.711,5.96c-12.821-0.355-25.659-0.112-38.49-0.132C789.928,345.639,788.304,345.489,786.181,345.383z"/>
<path fill-rule="evenodd" clip-rule="evenodd" fill="#E20010" d="M746.7,345.386c-15.427,0-30.238,0.058-45.048-0.134
	c-0.963-0.013-2.057-1.847-2.786-3.022c-0.375-0.604-0.086-1.626-0.086-2.459c-0.001-58.136-0.001-116.272-0.001-174.408
	c0-1.487,0-2.975,0-5.229c15.976-2.63,31.801-5.234,47.921-7.888C746.7,216.595,746.7,280.647,746.7,345.386z"/>
<path fill-rule="evenodd" clip-rule="evenodd" fill="#E20010" d="M722.953,136.219c-17.297,0.01-30.817-13.433-30.805-30.628
	c0.012-16.854,13.879-30.567,30.983-30.64c17.179-0.073,30.561,13.1,30.61,30.13C753.794,122.756,740.492,136.209,722.953,136.219z"
	/>
</svg>
